<?xml version="1.0" encoding="UTF-8"?>
<!DOCTYPE svg PUBLIC "-//W3C//DTD SVG 1.1//EN" "http://www.w3.org/Graphics/SVG/1.1/DTD/svg11.dtd">
<svg xmlns="http://www.w3.org/2000/svg" version="1.1" width="380px" height="270px" style="shape-rendering:geometricPrecision; text-rendering:geometricPrecision; image-rendering:optimizeQuality; fill-rule:evenodd; clip-rule:evenodd" xmlns:xlink="http://www.w3.org/1999/xlink">
<g><path style="opacity:0.667" fill="#bb515d" d="M 161.5,1.5 C 167.607,1.44003 170.441,4.44003 170,10.5C 169.333,11.8333 168.333,12.8333 167,13.5C 164.671,20.167 166.837,24.3336 173.5,26C 174.126,26.7504 174.626,27.5838 175,28.5C 175.667,34.5 175.667,40.5 175,46.5C 173.667,47.8333 172.333,47.8333 171,46.5C 170.83,40.8042 170.33,35.1376 169.5,29.5C 167.082,28.5428 164.916,27.2095 163,25.5C 162.667,21.8333 162.333,18.1667 162,14.5C 156.336,10.2413 156.169,5.90794 161.5,1.5 Z M 162.5,6.5 C 163.5,6.5 164.5,6.5 165.5,6.5C 164.754,10.31 163.754,10.31 162.5,6.5 Z"/></g>
<g><path style="opacity:0.588" fill="#ce3a4c" d="M 194.5,16.5 C 200.158,16.2368 201.658,18.5701 199,23.5C 189.55,45.1833 180.883,67.1833 173,89.5C 170.114,93.3363 166.948,93.503 163.5,90C 172.519,66.7922 181.686,43.6256 191,20.5C 191.69,18.6498 192.856,17.3164 194.5,16.5 Z"/></g>
<g><path style="opacity:0.227" fill="#be505e" d="M 134.5,13.5 C 138.596,12.7153 141.93,13.882 144.5,17C 146.891,17.2868 149.224,17.7868 151.5,18.5C 153.925,22.6027 156.259,26.7694 158.5,31C 162.089,31.2069 165.589,31.7069 169,32.5C 169.499,38.1569 169.666,43.8236 169.5,49.5C 173.241,48.5985 175.241,49.9319 175.5,53.5C 171.833,54.8333 168.167,54.8333 164.5,53.5C 164.5,47.5 164.5,41.5 164.5,35.5C 161.351,35.7886 158.351,35.2886 155.5,34C 152.83,29.9581 150.163,25.9581 147.5,22C 146.5,21.3333 145.5,21.3333 144.5,22C 138.751,27.2301 134.751,26.2301 132.5,19C 132.395,16.8218 133.061,14.9885 134.5,13.5 Z M 136.5,17.5 C 137.5,17.5 138.5,17.5 139.5,17.5C 139.5,18.5 139.5,19.5 139.5,20.5C 138.5,20.5 137.5,20.5 136.5,20.5C 136.5,19.5 136.5,18.5 136.5,17.5 Z"/></g>
<g><path style="opacity:1" fill="#cc3a4d" d="M 207.5,39.5 C 209.199,39.3398 210.866,39.5065 212.5,40C 220.5,44.3333 228.5,48.6667 236.5,53C 238.442,54.9719 238.776,57.1385 237.5,59.5C 229.494,64.8383 221.161,69.6717 212.5,74C 208.513,74.339 207.013,72.5057 208,68.5C 214.083,64.5414 220.249,60.7081 226.5,57C 220.249,53.2919 214.083,49.4586 208,45.5C 207.505,43.5273 207.338,41.5273 207.5,39.5 Z"/></g>
<g><path style="opacity:0.227" fill="#bf4f5c" d="M 191.5,53.5 C 195.437,53.2065 199.27,53.5399 203,54.5C 203.311,56.556 203.811,58.556 204.5,60.5C 203.407,64.1078 203.24,67.7745 204,71.5C 206.32,74.3307 208.487,77.3307 210.5,80.5C 209.026,85.0472 206.693,85.5472 203.5,82C 204.517,80.9505 204.684,79.7839 204,78.5C 200.777,77.2775 199.111,74.9441 199,71.5C 197.885,75.4845 198.885,78.8178 202,81.5C 202.333,84.1667 202.667,86.8333 203,89.5C 206.987,92.4456 207.487,95.9456 204.5,100C 199.092,102.127 195.758,100.294 194.5,94.5C 196.29,92.0485 197.623,89.3818 198.5,86.5C 198.418,83.9074 197.252,81.9074 195,80.5C 193.107,73.8571 193.107,67.1904 195,60.5C 196.587,59.273 197.921,59.6063 199,61.5C 199.483,60.552 199.649,59.552 199.5,58.5C 195.685,58.7182 192.352,57.7182 189.5,55.5C 190.243,54.8182 190.909,54.1515 191.5,53.5 Z M 200.5,93.5 C 203.125,94.4657 203.125,95.4657 200.5,96.5C 199.438,95.5754 199.438,94.5754 200.5,93.5 Z"/></g>
<g><path style="opacity:1" fill="#ce3549" d="M 152.5,39.5 C 156.648,39.4531 158.148,41.4531 157,45.5C 150.751,49.0408 144.584,52.7074 138.5,56.5C 144.779,60.2694 150.945,64.2694 157,68.5C 159.017,71.4923 158.351,73.8256 155,75.5C 146.624,71.3951 138.457,66.8951 130.5,62C 127.476,59.5254 126.81,56.5254 128.5,53C 136.411,48.2357 144.411,43.7357 152.5,39.5 Z"/></g>
<g><path style="opacity:0.231" fill="#bc495a" d="M 152.5,118.5 C 154.199,118.34 155.866,118.506 157.5,119C 152.708,127.42 147.542,135.587 142,143.5C 140.418,146.341 138.251,147.341 135.5,146.5C 134.417,145.635 134.251,144.635 135,143.5C 140.664,135.01 146.497,126.677 152.5,118.5 Z"/></g>
<g><path style="opacity:1" fill="#b83f4e" d="M 88.5,111.5 C 92.7494,111.572 95.416,113.739 96.5,118C 112.741,118.175 128.907,118.675 145,119.5C 140.242,128.315 134.909,136.982 129,145.5C 127.211,147.229 125.044,147.896 122.5,147.5C 126.135,139.674 130.468,132.174 135.5,125C 120.001,123.122 104.668,123.122 89.5,125C 88.9781,124.439 88.6448,123.772 88.5,123C 90.9891,119.228 90.9891,115.395 88.5,111.5 Z"/></g>
<g><path style="opacity:0.169" fill="#bc4655" d="M 281.5,106.5 C 292.344,105.501 296.511,110.168 294,120.5C 292.238,123.268 289.738,124.768 286.5,125C 295.87,128.441 297.537,134.108 291.5,142C 284.593,145.145 279.259,143.479 275.5,137C 271.167,136.667 266.833,136.333 262.5,136C 259.833,133.333 257.167,130.667 254.5,128C 245.167,127.333 235.833,127.333 226.5,128C 224.261,133.779 222.094,139.612 220,145.5C 218.556,147.155 216.722,147.822 214.5,147.5C 216.069,138.212 219.403,129.712 224.5,122C 235.167,121.333 245.833,121.333 256.5,122C 259.833,124 262.5,126.667 264.5,130C 268.375,131.52 272.375,131.854 276.5,131C 278.05,127.554 280.717,125.554 284.5,125C 280.717,124.446 278.05,122.446 276.5,119C 257.5,118.333 238.5,118.333 219.5,119C 216.005,128.15 212.505,137.317 209,146.5C 207.644,147.38 206.144,147.714 204.5,147.5C 207.258,136.059 210.925,124.892 215.5,114C 235.744,112.69 256.077,112.023 276.5,112C 277.692,109.645 279.359,107.812 281.5,106.5 Z M 283.5,130.5 C 288,130.164 289.833,132.164 289,136.5C 285.414,139.3 282.914,138.467 281.5,134C 281.978,132.697 282.645,131.531 283.5,130.5 Z M 283.5,111.5 C 289.488,111.664 290.821,114.164 287.5,119C 281.403,119.147 280.07,116.647 283.5,111.5 Z"/></g>
<g><path style="opacity:1" fill="#b94052" d="M 107.5,155.5 C 106.209,155.737 105.209,155.404 104.5,154.5C 108.473,148.184 112.473,141.851 116.5,135.5C 116.291,134.914 115.957,134.414 115.5,134C 104.059,134.35 92.726,134.35 81.5,134C 78.1233,140.401 73.1233,142.068 66.5,139C 61.1667,133.333 61.1667,127.667 66.5,122C 70.4065,120.566 74.4065,120.233 78.5,121C 79.7865,123.022 80.7865,125.189 81.5,127.5C 96.1553,128.333 110.822,128.833 125.5,129C 126.175,131.242 125.675,133.409 124,135.5C 119.552,142.282 114.719,148.782 109.5,155C 108.906,155.464 108.239,155.631 107.5,155.5 Z M 69.5,125.5 C 73.7888,124.483 76.1221,126.15 76.5,130.5C 74.6362,134.908 71.8028,135.575 68,132.5C 67.1668,129.829 67.6668,127.496 69.5,125.5 Z"/></g>
<g><path style="opacity:0.829" fill="#fdfdfd" d="M 47.5,150.5 C 60.1892,150.292 72.8559,150.626 85.5,151.5C 85.6646,154.518 85.498,157.518 85,160.5C 72.3461,176.476 60.1794,192.81 48.5,209.5C 61.1492,210.499 73.8158,210.832 86.5,210.5C 86.59,212.696 86.9233,214.863 87.5,217C 87.5607,218.711 86.8941,220.044 85.5,221C 68.1667,221.667 50.8333,221.667 33.5,221C 32.1137,217.127 32.2803,213.294 34,209.5C 45.8333,193.833 57.6667,178.167 69.5,162.5C 57.2566,161.96 44.9233,161.627 32.5,161.5C 32.5,158.167 32.5,154.833 32.5,151.5C 37.6946,151.821 42.6946,151.487 47.5,150.5 Z"/></g>
<g><path style="opacity:0.797" fill="#fdfcfc" d="M 144.5,152.5 C 143.025,154.41 141.025,155.576 138.5,156C 137.177,156.816 136.511,157.983 136.5,159.5C 112.91,163.688 105.077,177.021 113,199.5C 126.595,215.081 140.595,215.414 155,200.5C 161.811,187.565 159.978,176.065 149.5,166C 149.645,165.228 149.978,164.561 150.5,164C 153.783,162.977 157.116,162.143 160.5,161.5C 162.029,161.529 163.196,162.196 164,163.5C 175.548,182.712 173.048,199.878 156.5,215C 150.725,218.892 144.392,221.059 137.5,221.5C 133.23,219.869 129.23,220.202 125.5,222.5C 103.431,214.043 94.5977,198.043 99,174.5C 107.834,154.167 123.001,146.833 144.5,152.5 Z"/></g>
<g><path style="opacity:0.851" fill="#fdfefe" d="M 219.5,150.5 C 224.796,150.409 230.13,150.743 235.5,151.5C 235.5,154.833 235.5,158.167 235.5,161.5C 219.83,161.667 204.163,161.5 188.5,161C 187.549,157.943 187.216,154.777 187.5,151.5C 198.346,151.828 209.013,151.494 219.5,150.5 Z"/></g>
<g><path style="opacity:0.819" fill="#fdfdfd" d="M 263.5,150.5 C 275.526,151.373 287.526,151.54 299.5,151C 300.416,151.374 301.25,151.874 302,152.5C 302.667,154.833 302.667,157.167 302,159.5C 293.899,160.817 285.566,161.484 277,161.5C 268.833,161.333 260.667,161.167 252.5,161C 251.205,158.199 251.205,155.366 252.5,152.5C 256.313,151.833 259.979,151.166 263.5,150.5 Z"/></g>
<g><path style="opacity:0.822" fill="#fdfdfd" d="M 330.5,150.5 C 339.533,150.394 348.533,150.894 357.5,152C 369.709,154.732 375.709,162.398 375.5,175C 375.516,184.976 371.183,192.309 362.5,197C 367.365,204.367 372.031,211.867 376.5,219.5C 376.291,220.086 375.957,220.586 375.5,221C 371.375,221.854 367.375,221.52 363.5,220C 359.416,213.163 355.082,206.496 350.5,200C 344.509,199.501 338.509,199.334 332.5,199.5C 332.456,206.226 332.623,212.893 333,219.5C 331.701,220.98 330.034,221.646 328,221.5C 325.502,221.083 323.002,220.749 320.5,220.5C 320.333,205.83 320.5,191.163 321,176.5C 324.494,174.623 328.327,173.956 332.5,174.5C 332.268,178.98 332.935,183.313 334.5,187.5C 342.644,189.129 350.644,188.629 358.5,186C 363.753,180.735 364.919,174.568 362,167.5C 359.658,164.246 356.491,162.412 352.5,162C 342.167,161.667 331.833,161.333 321.5,161C 320.549,157.943 320.216,154.777 320.5,151.5C 324.042,151.813 327.375,151.479 330.5,150.5 Z"/></g>
<g><path style="opacity:0.801" fill="#fdfcfc" d="M 13.5,165.5 C 14.7273,183.62 14.7273,201.953 13.5,220.5C 10.227,221.585 6.89364,221.752 3.5,221C 2.5066,200.242 2.17327,179.409 2.5,158.5C 3.11742,158.389 3.61742,158.056 4,157.5C 5.54637,162.178 8.71303,164.844 13.5,165.5 Z"/></g>
<g><path style="opacity:1" fill="#c33b4b" d="M 13.5,165.5 C 8.71303,164.844 5.54637,162.178 4,157.5C 3.61742,158.056 3.11742,158.389 2.5,158.5C 2.24358,156.208 2.57692,154.041 3.5,152C 6.81677,151.502 10.1501,151.335 13.5,151.5C 13.5,156.167 13.5,160.833 13.5,165.5 Z"/></g>
<g><path style="opacity:0.078" fill="#cd384e" d="M 144.5,152.5 C 160.573,156.424 160.406,159.757 144,162.5C 141.317,161.907 138.817,160.907 136.5,159.5C 136.511,157.983 137.177,156.816 138.5,156C 141.025,155.576 143.025,154.41 144.5,152.5 Z"/></g>
<g><path style="opacity:1" fill="#c13b53" d="M 253.5,164.5 C 256.85,164.335 260.183,164.502 263.5,165C 264.576,166.726 264.743,168.559 264,170.5C 260.591,171.622 257.091,171.789 253.5,171C 252.232,168.837 252.232,166.67 253.5,164.5 Z"/></g>
<g><path style="opacity:1" fill="#c43c52" d="M 188.5,164.5 C 192.182,164.335 195.848,164.501 199.5,165C 200.991,170.019 198.991,172.185 193.5,171.5C 188.118,171.724 186.451,169.391 188.5,164.5 Z"/></g>
<g><path style="opacity:0.275" fill="#fae3e7" d="M 104.5,154.5 C 105.209,155.404 106.209,155.737 107.5,155.5C 103.088,160.005 99.4217,165.005 96.5,170.5C 95.5,170.5 94.5,170.5 93.5,170.5C 97.1995,165.144 100.866,159.81 104.5,154.5 Z"/></g>
<g><path style="opacity:0.649" fill="#c23c52" d="M 321.5,164.5 C 325.182,164.335 328.848,164.501 332.5,165C 333.576,166.726 333.743,168.559 333,170.5C 329.591,171.622 326.091,171.789 322.5,171C 321.577,168.959 321.244,166.792 321.5,164.5 Z"/></g>
<g><path style="opacity:0.83" fill="#fdfefd" d="M 188.5,174.5 C 192.167,174.5 195.833,174.5 199.5,174.5C 199.232,177.119 199.565,179.619 200.5,182C 210.849,182.168 221.183,182.668 231.5,183.5C 232.833,186.5 232.833,189.5 231.5,192.5C 220.854,193.499 210.187,193.832 199.5,193.5C 199.5,202.5 199.5,211.5 199.5,220.5C 195.563,220.793 191.73,220.46 188,219.5C 187.184,204.426 187.351,189.426 188.5,174.5 Z"/></g>
<g><path style="opacity:0.84" fill="#fcfcfc" d="M 252.5,174.5 C 256.182,174.335 259.848,174.501 263.5,175C 264.38,176.356 264.714,177.856 264.5,179.5C 275.172,179.333 285.839,179.5 296.5,180C 298.076,183.026 298.41,186.192 297.5,189.5C 296.271,190.281 294.938,190.781 293.5,191C 283.839,191.5 274.172,191.666 264.5,191.5C 264.5,197.833 264.5,204.167 264.5,210.5C 277.184,210.168 289.851,210.501 302.5,211.5C 303.799,214.699 303.799,217.865 302.5,221C 285.475,221.776 268.475,221.609 251.5,220.5C 251.96,205.168 252.294,189.835 252.5,174.5 Z"/></g>
<g><path style="opacity:1" fill="#c14e5e" d="M 93.5,170.5 C 94.5,170.5 95.5,170.5 96.5,170.5C 96.2424,174.44 95.0757,178.107 93,181.5C 87.8339,188.495 83.1673,195.828 79,203.5C 76.7148,206.877 74.2148,207.21 71.5,204.5C 78.8439,193.138 86.1772,181.805 93.5,170.5 Z"/></g>
<g><path style="opacity:0.447" fill="#f9bfcd" d="M 95.5,195.5 C 93.8828,194.962 92.2161,194.629 90.5,194.5C 92.6414,190.569 94.3081,190.902 95.5,195.5 Z"/></g>
<g><path style="opacity:1" fill="#c44c60" d="M 90.5,194.5 C 92.2161,194.629 93.8828,194.962 95.5,195.5C 93.8738,200.442 91.0404,204.442 87,207.5C 85.3791,207.275 84.2125,206.442 83.5,205C 85.2308,201.021 87.5641,197.521 90.5,194.5 Z"/></g>
<g><path style="opacity:0.196" fill="#b5424f" d="M 236.5,208.5 C 246.584,207.738 250.084,212.072 247,221.5C 241.342,226.941 236.175,226.441 231.5,220C 222.484,219.541 213.484,218.874 204.5,218C 203.167,216.667 203.167,215.333 204.5,214C 213.5,213.667 222.5,213.333 231.5,213C 233.063,211.264 234.73,209.764 236.5,208.5 Z M 237.5,213.5 C 241.908,213.062 243.575,215.062 242.5,219.5C 237.074,220.416 235.407,218.416 237.5,213.5 Z"/></g>
<g><path style="opacity:1" fill="#b8404f" d="M 250.5,224.5 C 259.763,226.028 262.43,231.028 258.5,239.5C 252.539,244.062 247.539,243.229 243.5,237C 232.167,236.667 220.833,236.333 209.5,236C 207.342,234.688 207.009,233.022 208.5,231C 220.167,230.667 231.833,230.333 243.5,230C 245.469,227.511 247.802,225.678 250.5,224.5 Z M 249.5,230.5 C 253.691,229.869 255.525,231.535 255,235.5C 251.749,238.46 249.582,237.793 248.5,233.5C 248.685,232.416 249.018,231.416 249.5,230.5 Z"/></g>
<g><path style="opacity:0.775" fill="#b7404e" d="M 137.5,221.5 C 142.234,231.864 138.9,237.364 127.5,238C 125.825,239.709 124.158,241.376 122.5,243C 101.639,244.811 80.9721,244.978 60.5,243.5C 62.7998,236.233 66.6331,229.9 72,224.5C 73.0113,225.337 74.1779,225.67 75.5,225.5C 74.3067,229.549 72.3067,233.216 69.5,236.5C 70.0253,237.192 70.6919,237.692 71.5,238C 87.1667,238.667 102.833,238.667 118.5,238C 123.229,236.243 124.562,233.077 122.5,228.5C 123.001,226.164 124.001,224.164 125.5,222.5C 129.23,220.202 133.23,219.869 137.5,221.5 Z M 129.5,225.5 C 135.039,225.965 135.873,228.299 132,232.5C 130.989,231.663 129.822,231.33 128.5,231.5C 128.325,229.379 128.659,227.379 129.5,225.5 Z"/></g>
<g><path style="opacity:0.997" fill="#b1404e" d="M 192.5,224.5 C 194.167,224.5 195.833,224.5 197.5,224.5C 193.706,237.379 189.206,250.046 184,262.5C 181.778,265.303 179.945,265.137 178.5,262C 183.075,249.438 187.742,236.938 192.5,224.5 Z"/></g>
<g><path style="opacity:0.608" fill="#b54853" d="M 212.5,221.5 C 218.509,221.334 224.509,221.501 230.5,222C 232.053,224.837 231.72,227.337 229.5,229.5C 228.692,229.192 228.025,228.692 227.5,228C 220.5,227.333 213.5,227.333 206.5,228C 202.109,238.715 197.942,249.548 194,260.5C 192.569,264.595 190.402,265.262 187.5,262.5C 192.162,249.002 197.496,235.836 203.5,223C 206.695,222.819 209.695,222.319 212.5,221.5 Z"/></g>
<g><path style="opacity:1" fill="#b23f4b" d="M 147.5,222.5 C 156.981,221.155 161.481,225.155 161,234.5C 157.934,240.284 153.1,242.784 146.5,242C 142.779,245.721 139.113,249.387 135.5,253C 103.835,253.5 72.1684,253.667 40.5,253.5C 45.5864,243.51 51.5864,234.01 58.5,225C 60.6406,224.116 62.3073,224.616 63.5,226.5C 59.5298,232.969 55.3632,239.302 51,245.5C 50.4092,246.483 50.7425,247.15 52,247.5C 76.3121,247.749 100.645,248.082 125,248.5C 128.29,248.572 131.456,248.072 134.5,247C 137.13,243.368 140.13,240.035 143.5,237C 140.848,231.116 142.182,226.282 147.5,222.5 Z M 149.5,227.5 C 154.881,227.452 156.547,229.952 154.5,235C 147.683,235.861 146.016,233.361 149.5,227.5 Z M 129.5,225.5 C 128.659,227.379 128.325,229.379 128.5,231.5C 129.822,231.33 130.989,231.663 132,232.5C 135.873,228.299 135.039,225.965 129.5,225.5 Z"/></g>
<g><path style="opacity:1" fill="#b3434f" d="M 184.5,223.5 C 185.496,223.414 186.329,223.748 187,224.5C 187.667,226.167 187.667,227.833 187,229.5C 182.8,240.435 178.8,251.435 175,262.5C 173.556,264.155 171.722,264.822 169.5,264.5C 169.34,262.801 169.506,261.134 170,259.5C 173.285,251.265 176.285,242.931 179,234.5C 180.188,230.387 182.021,226.72 184.5,223.5 Z"/></g>
</svg>
